<?xml version="1.0" standalone="no"?>
<!DOCTYPE svg PUBLIC "-//W3C//DTD SVG 20010904//EN"
 "http://www.w3.org/TR/2001/REC-SVG-20010904/DTD/svg10.dtd">
<svg version="1.0" xmlns="http://www.w3.org/2000/svg"
 width="735.000000pt" height="644.000000pt" viewBox="0 0 735.000000 644.000000"
 preserveAspectRatio="xMidYMid meet">

<g transform="translate(0.000000,644.000000) scale(0.100000,-0.100000)"
fill="#000000" stroke="none">
<path d="M6313 6433 c15 -2 37 -2 50 0 12 2 0 4 -28 4 -27 0 -38 -2 -22 -4z"/>
<path d="M3560 6409 c-148 -10 -337 -44 -422 -75 -40 -14 -91 -30 -113 -36
-22 -5 -44 -13 -49 -19 -6 -5 -17 -9 -25 -9 -13 0 -201 -82 -261 -114 -14 -8
-64 -34 -112 -59 -48 -25 -106 -58 -130 -73 -131 -83 -189 -122 -241 -166 -32
-26 -61 -48 -65 -48 -9 0 -220 -207 -271 -266 -19 -21 -50 -57 -70 -80 -78
-87 -210 -260 -267 -350 -49 -77 -184 -341 -234 -459 -87 -206 -119 -309 -181
-585 -23 -101 -24 -120 -24 -535 0 -451 2 -475 51 -745 29 -154 23 -133 105
-385 121 -375 187 -501 457 -881 82 -115 339 -371 442 -440 19 -13 64 -44 100
-69 130 -92 375 -229 455 -255 22 -7 64 -23 94 -37 29 -13 78 -30 107 -38 30
-8 58 -17 63 -20 11 -6 201 -51 281 -66 116 -21 362 -37 535 -34 270 4 498 45
770 137 248 84 586 269 811 443 98 77 277 256 339 339 283 382 309 428 520
891 67 148 126 335 150 480 8 50 20 108 25 130 6 22 15 78 20 125 14 118 47
715 43 770 -6 75 -34 233 -48 270 -8 19 -21 73 -30 119 -8 47 -20 90 -24 95
-5 6 -20 45 -34 86 -74 220 -104 296 -167 424 -38 78 -84 164 -102 192 -18 28
-44 70 -58 93 -81 134 -179 283 -217 329 -24 30 -43 57 -43 61 0 5 -28 37 -62
73 -35 36 -72 76 -84 89 -41 47 -129 120 -264 216 -186 132 -380 243 -532 304
-384 153 -789 211 -1238 178z m33 -76 c-7 -2 -19 -2 -25 0 -7 3 -2 5 12 5 14
0 19 -2 13 -5z m-113 -12 c-14 -5 -48 -11 -75 -14 l-50 -6 45 14 c25 7 59 13
75 13 29 0 29 0 5 -7z m414 -13 c-6 -10 -5 -10 7 -1 15 12 34 11 199 -7 199
-23 485 -94 643 -160 115 -48 309 -144 362 -179 22 -15 47 -30 55 -33 21 -8
141 -98 214 -160 88 -75 332 -324 393 -401 46 -59 93 -127 191 -282 45 -72
172 -323 222 -439 52 -123 104 -282 131 -401 68 -298 63 -255 63 -595 0 -445
-34 -685 -139 -990 -15 -41 -33 -95 -41 -120 -25 -77 -118 -305 -126 -308 -4
-2 -8 -11 -8 -19 0 -17 -15 -43 -108 -188 -123 -192 -284 -420 -321 -455 -28
-26 -52 -70 -45 -82 4 -6 3 -8 -3 -5 -5 3 -40 -25 -77 -64 -236 -243 -505
-424 -845 -567 -138 -59 -252 -93 -421 -126 -211 -41 -311 -51 -520 -50 -345
1 -624 47 -914 151 -162 58 -401 196 -611 354 -74 55 -267 253 -346 354 -43
55 -84 107 -91 115 -76 89 -188 271 -285 463 -96 190 -115 231 -147 331 -40
122 -46 147 -121 511 -52 253 -55 930 -5 1116 11 41 36 133 55 204 60 225 111
365 187 515 79 155 197 348 287 470 68 91 345 374 442 450 38 30 84 67 102 81
18 14 50 38 72 52 22 15 51 35 65 46 193 147 579 312 881 376 214 45 621 74
603 43z m293 6 c-3 -3 -12 -4 -19 -1 -8 3 -5 6 6 6 11 1 17 -2 13 -5z m110
-20 c-3 -3 -12 -4 -19 -1 -8 3 -5 6 6 6 11 1 17 -2 13 -5z m-1000 -10 c-3 -3
-12 -4 -19 -1 -8 3 -5 6 6 6 11 1 17 -2 13 -5z m1250 -50 c-3 -3 -12 -4 -19
-1 -8 3 -5 6 6 6 11 1 17 -2 13 -5z m-1717 -44 c-8 -5 -19 -10 -25 -10 -5 0
-3 5 5 10 8 5 20 10 25 10 6 0 3 -5 -5 -10z m-41 -14 c-2 -2 -15 -9 -29 -15
-24 -11 -24 -11 -6 3 16 13 49 24 35 12z m2131 -26 c8 -5 11 -10 5 -10 -5 0
-17 5 -25 10 -8 5 -10 10 -5 10 6 0 17 -5 25 -10z m60 -36 c0 -2 -9 0 -20 6
-11 6 -20 13 -20 16 0 2 9 0 20 -6 11 -6 20 -13 20 -16z m252 -146 c31 -21 60
-43 64 -50 5 -7 -23 9 -61 36 -113 80 -115 90 -3 14z m363 -298 c16 -17 16
-20 3 -15 -9 4 -19 13 -22 21 -7 19 -2 18 19 -6z m-4201 -3567 c9 -18 14 -33
12 -33 -6 0 -36 55 -36 66 0 11 5 3 24 -33z m81 -158 c32 -60 71 -129 87 -152
16 -24 25 -43 21 -43 -5 0 -15 10 -22 23 -49 77 -151 268 -151 282 0 13 3 8
65 -110z m4445 -125 c-6 -11 -13 -20 -16 -20 -2 0 0 9 6 20 6 11 13 20 16 20
2 0 0 -9 -6 -20z m-4310 -100 c6 -11 8 -20 6 -20 -3 0 -10 9 -16 20 -6 11 -8
20 -6 20 3 0 10 -9 16 -20z m41 -62 c8 -15 8 -18 0 -14 -6 4 -16 16 -22 28 -8
15 -8 18 0 14 6 -4 16 -16 22 -28z m4160 4 c-5 -10 -18 -25 -27 -33 -11 -9 -9
-2 6 19 26 35 36 42 21 14z m-51 -69 c-5 -10 -24 -34 -42 -53 -30 -33 -30 -33
-13 -5 17 30 55 75 62 75 2 0 -1 -8 -7 -17z m-91 -120 c-7 -10 -20 -25 -29
-34 -8 -8 -26 -29 -40 -45 -14 -16 -32 -34 -40 -39 -8 -5 14 23 49 63 59 66
92 97 60 55z m-135 -147 c-3 -8 -13 -17 -22 -21 -13 -5 -13 -2 3 15 21 24 26
25 19 6z m-35 -39 c-2 -1 -13 -9 -24 -17 -19 -14 -19 -14 -6 3 7 9 18 17 24
17 6 0 8 -1 6 -3z m-49 -40 c0 -2 -10 -12 -22 -23 l-23 -19 19 23 c18 21 26
27 26 19z"/>
<path d="M3620 6183 c-481 -46 -895 -207 -1278 -496 -176 -132 -457 -430 -579
-612 -205 -307 -330 -597 -425 -985 l-33 -135 0 -415 c0 -353 3 -433 18 -535
44 -286 134 -572 280 -885 191 -412 582 -814 1013 -1045 457 -243 1038 -325
1562 -219 287 58 589 180 817 330 50 32 100 64 112 71 41 22 126 97 243 214
139 140 149 152 264 304 82 107 115 155 153 220 147 251 196 345 262 509 74
182 122 361 165 607 4 25 13 38 26 42 26 7 25 24 -1 32 -17 6 -19 12 -14 33
12 48 31 403 30 557 -1 94 -8 181 -19 235 -9 47 -21 110 -27 140 -17 88 -102
333 -169 489 -70 164 -149 311 -226 423 -29 42 -61 92 -71 111 -10 19 -33 52
-51 73 -31 38 -131 163 -182 228 -14 18 -50 55 -79 82 -30 27 -68 63 -85 80
-36 34 -168 137 -244 188 -73 49 -296 160 -372 186 -36 12 -69 25 -75 30 -21
17 -267 87 -390 111 -151 29 -481 46 -625 32z m483 -79 c391 -48 808 -220
1096 -451 150 -120 331 -295 390 -378 24 -33 49 -64 56 -70 6 -5 24 -28 38
-50 15 -22 34 -51 44 -65 50 -74 80 -123 121 -200 25 -47 53 -98 62 -115 49
-89 144 -320 178 -437 69 -230 94 -366 103 -548 15 -304 -27 -712 -97 -950
-46 -152 -182 -505 -209 -540 -6 -8 -18 -33 -26 -55 -13 -33 -92 -159 -169
-270 -79 -113 -354 -435 -391 -458 -11 -7 -19 -16 -20 -22 0 -12 -91 -86 -226
-185 -143 -104 -208 -143 -347 -210 -183 -87 -277 -119 -516 -174 -142 -33
-485 -63 -497 -43 -2 4 -14 5 -26 1 -43 -14 -261 6 -437 40 -179 34 -428 121
-578 203 -81 43 -202 120 -212 133 -3 4 -41 33 -84 65 -144 106 -398 369 -502
520 -11 17 -40 59 -65 95 -62 90 -156 255 -217 380 -82 169 -169 498 -213 805
-18 124 -20 177 -16 470 4 314 5 335 30 438 15 60 36 135 47 166 11 32 20 64
20 72 0 33 105 331 150 424 57 119 184 323 283 455 257 344 726 693 1122 835
357 128 721 167 1108 119z m-2404 -4096 c12 -21 20 -38 18 -38 -7 0 -47 65
-47 75 0 10 1 8 29 -37z m41 -68 c6 -11 8 -20 6 -20 -3 0 -10 9 -16 20 -6 11
-8 20 -6 20 3 0 10 -9 16 -20z m28 -55 c-3 -3 -9 2 -12 12 -6 14 -5 15 5 6 7
-7 10 -15 7 -18z m40 -51 c13 -20 22 -38 19 -40 -2 -2 -15 14 -30 36 -14 22
-23 40 -19 40 4 0 17 -16 30 -36z m53 -81 c13 -16 12 -17 -3 -4 -10 7 -18 15
-18 17 0 8 8 3 21 -13z"/>
<path d="M5260 5374 c-72 -12 -100 -27 -144 -75 -25 -28 -46 -56 -46 -63 0 -9
98 -74 198 -131 9 -5 33 -22 53 -37 20 -16 40 -28 46 -28 26 0 86 106 97 173
10 56 -21 117 -72 139 -44 19 -96 28 -132 22z m136 -282 c-17 -16 -18 -16 -5
5 7 12 15 20 18 17 3 -2 -3 -12 -13 -22z"/>
<path d="M4700 5188 c-91 -11 -133 -21 -138 -36 -2 -6 5 -15 15 -19 16 -6 151
-87 260 -156 45 -29 58 -33 48 -17 -3 6 -1 10 5 10 7 0 10 -7 6 -15 -6 -15 29
-45 53 -45 8 0 37 11 65 24 61 29 184 50 237 42 43 -7 60 7 36 31 -31 32 -224
133 -252 133 -8 0 -32 6 -52 14 -101 36 -179 46 -283 34z m116 -176 c-4 -3
-14 2 -24 12 -16 18 -16 18 6 6 13 -6 21 -14 18 -18z m44 -24 c0 -6 -6 -5 -15
2 -8 7 -15 14 -15 16 0 2 7 1 15 -2 8 -4 15 -11 15 -16z m323 5 c-7 -2 -19 -2
-25 0 -7 3 -2 5 12 5 14 0 19 -2 13 -5z m-183 -43 c-8 -5 -19 -10 -25 -10 -5
0 -3 5 5 10 8 5 20 10 25 10 6 0 3 -5 -5 -10z"/>
<path d="M4070 5137 c-48 -16 -173 -141 -187 -189 -15 -51 -5 -87 29 -108 l29
-17 -73 -7 c-199 -20 -366 -84 -541 -207 -15 -11 -32 -17 -37 -14 -5 3 -23 32
-40 64 -17 32 -58 84 -90 115 -32 31 -60 67 -62 79 -2 12 5 40 16 62 42 89 25
173 -44 208 -26 14 -53 17 -105 15 -140 -6 -216 -76 -275 -252 -16 -50 -43
-107 -59 -127 -36 -44 -63 -121 -54 -157 7 -30 46 -97 63 -107 20 -12 10 -23
-27 -29 -67 -11 -169 -32 -253 -54 -64 -17 -213 -83 -289 -129 -90 -54 -143
-96 -202 -159 -24 -26 -52 -56 -62 -66 -31 -32 -107 -155 -134 -216 -64 -145
-95 -303 -94 -482 3 -396 112 -671 339 -854 152 -123 302 -171 505 -164 105 4
134 9 206 36 227 85 366 197 675 542 27 30 107 116 177 190 287 305 305 320
376 320 68 0 68 -13 9 -133 -30 -59 -70 -146 -91 -195 -21 -48 -41 -91 -45
-97 -4 -5 -31 -55 -60 -110 -52 -98 -93 -176 -173 -325 -93 -174 -240 -330
-327 -347 -74 -14 -130 -30 -124 -36 4 -4 4 -7 -1 -7 -4 0 -14 8 -22 18 -10
12 -16 14 -19 5 -3 -7 -10 -13 -15 -13 -6 0 -7 5 -4 10 3 6 5 10 3 10 -2 0
-57 9 -122 20 -66 11 -122 18 -124 15 -2 -2 13 -7 34 -10 60 -10 63 -13 12
-14 -28 -1 -52 5 -60 13 -8 9 -27 12 -53 9 -29 -3 -36 -2 -25 6 20 14 4 18
-80 24 -36 3 -143 11 -238 17 -141 11 -187 10 -245 0 -169 -30 -267 -119 -269
-241 -1 -124 104 -215 275 -238 209 -29 578 2 712 59 11 5 31 12 45 16 14 3
49 18 79 31 50 24 57 25 122 14 37 -6 119 -11 181 -11 169 0 305 41 422 127
72 52 96 86 96 135 0 42 -29 71 -64 63 -12 -2 -36 -7 -55 -9 -19 -3 -39 -12
-43 -21 -5 -8 -14 -13 -19 -9 -13 8 -70 -16 -64 -26 3 -5 0 -12 -6 -16 -8 -5
-9 -3 -4 6 6 9 2 10 -16 5 -13 -4 -25 -12 -27 -16 -2 -5 -10 -9 -18 -9 -9 0
-12 5 -9 10 3 6 0 10 -7 10 -7 0 21 30 62 67 224 202 311 305 383 455 23 48
45 88 50 88 4 0 7 -13 7 -28 0 -29 28 -159 53 -247 19 -66 104 -245 117 -245
5 0 9 -4 8 -8 -6 -20 71 -123 151 -202 141 -140 285 -196 476 -187 220 10 375
104 558 339 110 140 139 233 95 298 -20 30 -30 35 -68 38 -62 4 -105 -33 -156
-135 -28 -56 -61 -99 -119 -158 -101 -102 -164 -136 -255 -137 -190 -2 -210 0
-268 33 -126 71 -197 154 -255 301 -58 143 -87 317 -87 513 l0 83 73 17 c206
49 465 234 590 422 51 77 117 210 148 300 12 36 21 98 25 177 5 104 3 132 -15
201 -26 99 -98 248 -115 242 -29 -11 -2 46 31 65 42 25 37 36 -6 13 -17 -8
-31 -13 -31 -11 0 10 61 37 70 31 5 -3 37 10 69 29 33 19 97 47 143 62 70 23
101 28 198 28 106 1 119 -1 171 -27 133 -65 163 -225 78 -412 -37 -83 -50
-174 -26 -194 56 -46 179 122 214 294 30 146 -7 284 -99 373 -45 44 -149 102
-183 102 -11 0 -27 4 -35 10 -9 5 -19 5 -26 -1 -8 -7 -14 -6 -19 1 -4 7 -43
10 -107 9 -95 -2 -106 -5 -227 -54 -121 -49 -250 -123 -291 -167 -11 -12 -20
-16 -20 -10 0 7 -14 12 -31 12 -17 0 -28 4 -24 10 3 6 -3 10 -14 10 -10 0 -38
18 -61 40 -23 22 -48 40 -55 40 -7 0 -15 4 -17 9 -3 7 -114 63 -173 86 -83 34
-292 74 -385 75 l-65 1 60 29 c34 16 80 49 107 77 138 143 109 261 -52 210z
m-1043 -113 c14 -22 15 -30 4 -58 -47 -114 -47 -113 -26 -148 10 -18 50 -62
87 -97 82 -76 98 -104 98 -169 0 -50 -20 -92 -74 -152 -48 -53 -116 -204 -116
-257 0 -33 -15 -41 -80 -48 -35 -3 -72 -11 -81 -16 -10 -5 -27 -9 -38 -9 -87
0 -313 -126 -428 -238 -120 -117 -203 -274 -203 -384 0 -158 128 -259 311
-245 133 11 238 66 350 185 55 57 79 95 136 213 39 79 74 155 78 169 4 14 13
39 20 55 30 69 85 210 85 219 0 9 15 41 82 181 71 146 156 239 276 303 179 95
397 138 576 113 162 -23 371 -96 492 -173 l48 -30 -33 -29 c-19 -16 -37 -29
-41 -29 -14 0 -173 -165 -213 -222 -63 -90 -116 -176 -149 -240 -30 -60 -47
-66 -65 -25 -19 39 -94 116 -131 134 -63 31 -250 21 -392 -21 -137 -40 -230
-49 -328 -34 -56 9 -65 8 -83 -8 -42 -38 0 -138 75 -182 59 -35 101 -42 242
-45 156 -2 191 -13 306 -94 32 -22 71 -46 88 -53 55 -23 36 -40 -48 -45 -71
-4 -167 -36 -224 -74 -55 -37 -225 -218 -335 -356 -65 -81 -331 -342 -428
-420 -199 -159 -389 -225 -580 -203 -231 28 -427 233 -541 568 -28 83 -29 90
-29 285 0 174 3 212 23 289 37 149 80 227 192 348 51 56 204 178 224 178 3 0
27 13 53 28 54 32 202 90 308 121 86 25 249 61 279 61 27 0 100 73 116 115 10
27 9 32 -19 57 -22 20 -44 28 -88 33 -63 6 -100 21 -116 46 -13 20 23 95 74
153 28 32 36 50 37 84 3 62 24 104 73 144 51 41 63 46 106 47 24 1 37 -5 50
-25z m1011 -361 c-32 -2 -84 -2 -115 0 -32 2 -6 3 57 3 63 0 89 -1 58 -3z
m149 -19 c-3 -3 -12 -4 -19 -1 -8 3 -5 6 6 6 11 1 17 -2 13 -5z m92 -20 c10
-9 -35 -3 -49 6 -11 8 -7 9 15 4 17 -4 32 -8 34 -10z m480 -306 c30 -81 44
-301 25 -413 -23 -143 -50 -212 -121 -316 -64 -92 -204 -213 -293 -252 -19 -8
-60 -26 -90 -39 -58 -26 -80 -26 -80 -1 0 19 109 344 120 358 4 5 11 21 15 35
4 14 30 62 56 108 27 46 64 110 82 144 17 33 37 68 42 77 6 9 28 45 49 81 22
36 60 92 85 125 26 33 54 72 64 88 21 33 35 34 46 5z m-1769 -336 c0 -15 -49
-174 -72 -232 -36 -92 -104 -201 -172 -276 -53 -58 -81 -79 -148 -112 -102
-49 -154 -58 -218 -37 -63 21 -82 44 -88 105 -3 39 2 68 23 126 24 66 38 85
114 163 141 144 245 201 471 260 46 12 90 13 90 3z m922 -48 c46 -13 67 -26
93 -57 44 -51 55 -100 28 -130 -10 -12 -25 -34 -32 -49 -13 -25 -18 -27 -65
-25 -43 2 -61 10 -111 47 -33 25 -62 47 -65 50 -18 20 -268 60 -373 60 -34 0
-63 7 -84 20 -34 20 -43 40 -20 40 6 1 84 3 172 5 109 2 179 9 220 20 55 15
129 30 164 34 8 0 41 -6 73 -15z m365 -850 c-3 -3 -12 -4 -19 -1 -8 3 -5 6 6
6 11 1 17 -2 13 -5z m-40 -10 c-3 -3 -12 -4 -19 -1 -8 3 -5 6 6 6 11 1 17 -2
13 -5z m-80 -321 c-2 -16 -4 -3 -4 27 0 30 2 43 4 28 2 -16 2 -40 0 -55z
m-1947 -363 c13 -8 13 -10 -2 -10 -9 0 -20 5 -23 10 -8 13 5 13 25 0z m1394
-14 c-8 -14 -32 -37 -52 -52 -33 -24 -31 -21 13 24 55 58 63 63 39 28z m-1249
-6 c-3 -5 -10 -10 -16 -10 -5 0 -9 5 -9 10 0 6 7 10 16 10 8 0 12 -4 9 -10z
m135 0 c0 -5 -8 -10 -17 -10 -15 0 -16 2 -3 10 19 12 20 12 20 0z m-57 -7 c-7
-2 -19 -2 -25 0 -7 3 -2 5 12 5 14 0 19 -2 13 -5z m1077 -66 c0 -2 -17 -19
-37 -38 l-38 -34 34 38 c33 34 41 42 41 34z m-1293 -13 c-3 -3 -12 -4 -19 -1
-8 3 -5 6 6 6 11 1 17 -2 13 -5z m-137 -19 c-30 -7 -64 -16 -75 -20 -16 -6
-18 -5 -8 5 13 14 65 28 108 28 20 0 12 -4 -25 -13z m193 8 c-7 -2 -19 -2 -25
0 -7 3 -2 5 12 5 14 0 19 -2 13 -5z m44 1 c-3 -3 -12 -4 -19 -1 -8 3 -5 6 6 6
11 1 17 -2 13 -5z m131 -11 c-10 -2 -26 -2 -35 0 -10 3 -2 5 17 5 19 0 27 -2
18 -5z m101 -9 c10 -9 -55 -3 -69 6 -10 6 -2 7 25 3 22 -3 42 -7 44 -9z m58 0
c-3 -3 -12 -4 -19 -1 -8 3 -5 6 6 6 11 1 17 -2 13 -5z m-652 -39 c-16 -13 -34
-24 -40 -25 -5 0 4 11 20 25 17 13 35 24 40 25 6 0 -3 -11 -20 -25z m1002 -21
c-3 -3 -12 -4 -19 -1 -8 3 -5 6 6 6 11 1 17 -2 13 -5z m-1083 -68 c-32 -64
-28 -103 15 -163 57 -78 195 -116 422 -114 127 1 313 23 399 47 133 38 158 46
212 70 55 24 60 24 150 13 175 -21 202 -29 79 -23 -62 2 -122 9 -133 15 -16 8
-37 3 -102 -25 -165 -70 -342 -106 -561 -111 -305 -7 -437 32 -495 146 -30 58
-25 107 18 177 25 39 23 24 -4 -32z m329 7 c-7 -2 -21 -2 -30 0 -10 3 -4 5 12
5 17 0 24 -2 18 -5z m95 0 c-16 -2 -40 -2 -55 0 -16 2 -3 4 27 4 30 0 43 -2
28 -4z m90 -10 c-10 -2 -26 -2 -35 0 -10 3 -2 5 17 5 19 0 27 -2 18 -5z m182
-28 c25 -8 32 -12 15 -9 -16 3 -64 12 -105 20 -75 14 -75 14 -15 9 33 -2 80
-11 105 -20z m-100 -21 c52 -8 116 -18 143 -21 26 -3 49 -9 52 -13 2 -3 -36
-12 -84 -18 -279 -37 -502 -35 -543 6 -26 26 -18 38 40 57 57 18 247 13 392
-11z m1161 -14 c-51 -44 -251 -110 -332 -110 -41 0 -8 17 43 23 73 7 226 58
273 90 52 35 59 34 16 -3z m673 -29 c-2 -3 -12 3 -22 13 -16 17 -16 18 5 5 12
-7 20 -15 17 -18z m783 -6 c-15 -14 -33 -25 -40 -25 -6 0 4 11 23 25 45 31 53
31 17 0z m-2982 -46 c22 -5 24 -7 9 -8 -26 -1 -90 24 -99 40 -4 6 8 3 26 -7
19 -9 48 -21 64 -25z m2241 31 c6 -6 39 -26 75 -46 35 -19 53 -32 41 -29 -24
7 -142 74 -142 81 0 8 16 4 26 -6z m684 -18 c0 -19 -182 -93 -224 -91 -12 0 7
8 41 18 47 14 133 52 181 80 1 0 2 -3 2 -7z m-2842 -19 c-10 -2 -26 -2 -35 0
-10 3 -2 5 17 5 19 0 27 -2 18 -5z m145 0 c-7 -2 -21 -2 -30 0 -10 3 -4 5 12
5 17 0 24 -2 18 -5z m-60 -10 c-7 -2 -19 -2 -25 0 -7 3 -2 5 12 5 14 0 19 -2
13 -5z m2262 -43 c13 -5 14 -9 5 -9 -8 0 -24 4 -35 9 -13 5 -14 9 -5 9 8 0 24
-4 35 -9z m244 -26 c8 -7 -174 -2 -199 6 -14 4 25 5 85 2 61 -2 112 -6 114 -8z"/>
<path d="M3835 4514 c-35 -20 -85 -73 -85 -91 0 -18 25 -16 41 3 27 32 93 58
149 58 42 0 78 -10 150 -41 103 -44 230 -65 230 -39 0 8 -29 20 -72 30 -40 10
-109 34 -153 54 -96 44 -208 55 -260 26z"/>
<path d="M3930 4424 c-32 -6 -100 -35 -100 -43 0 -4 -16 -15 -35 -26 -43 -22
-42 -46 0 -56 17 -4 50 -15 75 -24 68 -26 138 -15 243 35 48 23 87 45 87 49 0
9 -168 61 -210 66 -19 2 -46 1 -60 -1z m25 -91 c6 -17 7 -17 21 1 16 22 30 15
20 -9 -8 -23 -70 -16 -74 8 -2 10 3 17 11 17 8 0 18 -8 22 -17z m115 8 c0 -12
-29 -23 -41 -15 -18 10 -9 24 16 24 14 0 25 -4 25 -9z m-170 -22 c0 -5 -7 -9
-15 -9 -8 0 -15 7 -15 15 0 9 6 12 15 9 8 -4 15 -10 15 -15z"/>
<path d="M4236 5013 c-42 -54 -76 -103 -76 -110 0 -7 17 -15 38 -18 124 -20
237 -55 356 -109 61 -28 90 -29 37 -1 -17 8 -31 18 -31 20 0 3 18 -4 40 -15
23 -12 38 -25 35 -30 -6 -10 67 -70 85 -70 7 0 10 6 7 14 -11 27 69 133 118
158 11 6 1 -7 -21 -28 -39 -37 -84 -101 -84 -120 0 -5 12 9 27 31 15 22 44 56
65 76 21 19 38 42 38 51 0 9 -16 26 -35 38 -20 12 -41 28 -49 35 -32 33 -230
124 -326 151 -139 39 -137 40 -224 -73z m186 -154 c43 -16 91 -36 106 -45 30
-17 16 -13 -78 23 -36 14 -96 34 -135 44 -63 17 -65 19 -21 13 27 -3 85 -19
128 -35z"/>
<path d="M4980 1109 c0 -5 5 -7 10 -4 6 3 10 8 10 11 0 2 -4 4 -10 4 -5 0 -10
-5 -10 -11z"/>
<path d="M838 3403 c-98 -135 -159 -268 -199 -433 -17 -67 -16 -274 1 -326 12
-36 12 -37 -27 -73 -24 -22 -57 -71 -84 -125 -36 -73 -44 -101 -47 -158 -7
-108 41 -257 113 -353 12 -16 20 -36 17 -44 -3 -9 0 -11 8 -6 8 5 36 -16 79
-57 106 -104 189 -167 425 -327 80 -55 139 -90 188 -114 31 -15 60 -32 63 -37
4 -6 24 -19 46 -31 32 -16 44 -18 55 -8 21 17 17 53 -8 77 -26 24 -22 17 -152
287 -53 110 -114 250 -137 310 -120 323 -141 385 -163 479 -49 206 -96 564
-104 801 -8 208 -15 220 -74 138z m32 -170 c0 -126 19 -348 40 -480 45 -277
167 -721 241 -879 10 -22 19 -43 19 -47 0 -14 63 -145 92 -190 17 -26 27 -51
23 -55 -4 -4 -10 -1 -12 6 -3 7 -21 34 -42 60 -34 43 -304 448 -378 567 -119
190 -196 478 -178 668 8 91 49 246 82 312 40 80 94 165 104 165 5 0 9 -56 9
-127z m-191 -748 c41 -167 314 -673 352 -649 10 6 12 -9 2 -19 -3 -4 -60 48
-125 116 -106 108 -120 120 -128 102 -8 -18 -9 -18 -9 -2 -1 26 -25 16 -29
-12 -3 -17 24 -48 120 -139 235 -223 352 -337 382 -372 28 -31 29 -33 5 -15
-99 75 -184 137 -247 179 -69 47 -100 72 -236 190 -89 77 -102 92 -156 187
-90 157 -104 260 -49 367 37 72 89 137 99 125 4 -4 13 -30 19 -58z m115 -490
c11 -9 14 -15 7 -15 -7 0 -19 7 -27 15 -20 19 -5 19 20 0z m72 -77 l29 -33
-32 29 c-31 28 -38 36 -30 36 2 0 16 -15 33 -32z m-166 -54 c0 -3 -13 4 -30
16 -16 12 -30 24 -30 26 0 3 14 -4 30 -16 17 -12 30 -24 30 -26z m321 9 c13
-16 12 -17 -3 -4 -10 7 -18 15 -18 17 0 8 8 3 21 -13z m-55 -50 c-7 -7 -26 7
-26 19 0 6 6 6 15 -2 9 -7 13 -15 11 -17z m-131 -75 c35 -29 64 -56 64 -61 1
-9 -103 75 -149 121 -42 42 -14 22 85 -60z m211 0 l29 -33 -32 29 c-31 28 -38
36 -30 36 2 0 16 -15 33 -32z m129 -248 c3 -6 -1 -7 -9 -4 -18 7 -21 14 -7 14
6 0 13 -4 16 -10z m56 -37 c13 -17 13 -17 -6 -3 -11 8 -22 16 -24 17 -2 2 0 3
6 3 6 0 17 -8 24 -17z m236 -135 c-3 -8 -6 -5 -6 6 -1 11 2 17 5 13 3 -3 4
-12 1 -19z"/>
<path d="M6576 3168 c-2 -7 -10 -67 -16 -133 -21 -205 -154 -697 -254 -939
-39 -93 -288 -590 -310 -616 -6 -8 -21 -32 -31 -54 -11 -21 -28 -41 -38 -44
-10 -3 -16 -11 -13 -18 7 -18 -78 -149 -109 -170 -32 -21 -37 -39 -16 -65 l17
-21 52 26 c29 14 52 24 52 22 0 -3 30 13 67 35 37 21 74 39 82 39 7 0 37 14
65 32 28 17 94 56 146 86 159 91 342 232 430 328 55 60 122 176 145 252 10 35
7 144 -6 199 -14 56 -51 134 -86 180 -24 31 -24 32 -8 80 27 79 36 142 36 264
0 108 -3 125 -37 228 -62 188 -152 342 -168 289z m94 -189 c46 -119 62 -202
63 -319 0 -116 -12 -194 -50 -315 -40 -129 -131 -305 -185 -359 -10 -10 -18
-21 -18 -25 0 -4 -8 -16 -19 -27 -10 -11 -29 -37 -42 -56 -13 -20 -78 -103
-144 -184 -145 -180 -131 -163 -200 -254 -69 -92 -101 -114 -49 -34 119 187
250 460 332 694 23 63 62 174 87 245 66 185 126 448 151 660 3 33 9 64 11 68
10 17 34 -18 63 -94z m80 -750 c39 -64 64 -158 58 -221 -7 -65 -69 -189 -131
-260 -46 -52 -146 -139 -207 -181 -14 -9 -54 -39 -90 -67 -36 -27 -85 -59
-110 -71 -64 -30 -82 -47 -70 -69 10 -19 4 -28 -37 -49 -34 -17 -28 -6 10 18
23 15 27 21 14 21 -10 0 -15 5 -12 10 10 16 -11 12 -25 -5 -7 -8 -20 -15 -29
-15 -9 -1 -32 -14 -51 -30 -19 -17 -40 -30 -48 -30 -13 0 33 41 147 128 30 23
83 67 116 97 54 49 155 135 180 153 44 33 105 88 110 100 6 17 -12 42 -30 42
-14 0 -84 -53 -125 -94 -14 -14 -31 -26 -37 -26 -7 0 -28 -20 -49 -46 -40 -49
-84 -81 -65 -47 6 10 34 44 63 75 109 118 212 275 305 466 41 83 76 152 78
152 2 0 17 -23 35 -51z m-315 -567 c-6 -4 -24 -18 -40 -32 -29 -24 -29 -23 2
8 18 17 36 32 40 32 4 0 3 -3 -2 -8z m-85 -65 c0 -2 -12 -14 -27 -28 l-28 -24
24 28 c23 25 31 32 31 24z m210 -21 c0 -2 -8 -10 -17 -17 -16 -13 -17 -12 -4
4 13 16 21 21 21 13z m-287 -50 c-4 -7 -21 -24 -38 -37 -62 -50 -68 -50 -15
-1 58 55 66 60 53 38z m197 -20 c0 -8 -102 -77 -106 -73 -3 2 19 21 48 40 56
38 58 39 58 33z m-335 -102 c-65 -54 -87 -63 -36 -15 30 28 57 48 60 45 3 -3
-8 -16 -24 -30z m204 13 c-2 -1 -13 -9 -24 -17 -19 -14 -19 -14 -6 3 7 9 18
17 24 17 6 0 8 -1 6 -3z m-59 -32 c0 -2 -10 -9 -22 -15 -22 -11 -22 -10 -4 4
21 17 26 19 26 11z m-160 -100 c-7 -8 -20 -15 -28 -15 -13 0 -12 3 4 15 25 19
40 19 24 0z m-135 -65 c-3 -5 -12 -10 -18 -10 -7 0 -6 4 3 10 19 12 23 12 15
0z"/>
<path d="M256 2019 c-32 -25 -35 -73 -6 -129 27 -54 55 -78 125 -110 54 -25
188 -60 229 -60 22 0 49 45 42 68 -4 11 -26 33 -49 48 -23 16 -44 33 -45 37
-11 24 -123 129 -157 146 -51 27 -105 27 -139 0z m149 -79 c3 -6 -1 -7 -9 -4
-18 7 -21 14 -7 14 6 0 13 -4 16 -10z m8 -36 c57 -49 59 -54 21 -54 -40 0
-132 59 -116 74 11 12 72 -1 95 -20z m-122 -29 c8 -16 6 -15 -10 4 -12 13 -21
28 -21 35 0 12 14 -5 31 -39z m240 -12 c13 -16 12 -17 -3 -4 -10 7 -18 15 -18
17 0 8 8 3 21 -13z m-195 -28 c10 -8 15 -14 9 -14 -5 0 -19 6 -29 14 -11 8
-15 15 -10 15 6 0 19 -7 30 -15z m49 -33 c-3 -3 -11 0 -18 7 -9 10 -8 11 6 5
10 -3 15 -9 12 -12z m172 -42 c23 -6 43 -6 54 1 15 7 17 6 13 -6 -4 -8 -10
-15 -14 -15 -22 0 -146 32 -154 40 -5 5 7 5 27 0 21 -6 53 -14 74 -20z"/>
<path d="M6894 1736 c-30 -14 -65 -42 -87 -67 -19 -24 -63 -62 -96 -83 -65
-42 -77 -70 -48 -110 13 -18 18 -18 113 -2 133 23 231 69 262 124 31 56 30
114 -4 141 -35 27 -77 26 -140 -3z m143 -52 c2 -13 1 -15 -4 -4 -3 8 -11 19
-17 23 -7 6 -6 7 4 4 8 -2 16 -12 17 -23z m-53 -39 c0 -13 -61 -54 -91 -61
-13 -4 -30 -3 -39 0 -14 5 -14 9 -3 23 31 37 135 67 133 38z m44 -37 c-12 -25
-65 -65 -74 -56 -2 3 8 11 22 18 14 8 32 27 41 43 18 35 28 31 11 -5z m-258
-12 c0 -2 -8 -10 -17 -17 -16 -13 -17 -12 -4 4 13 16 21 21 21 13z m140 -30
c0 -2 -7 -7 -16 -10 -8 -3 -12 -2 -9 4 6 10 25 14 25 6z m-25 -46 c-22 -10
-71 -21 -110 -24 l-70 -6 75 15 c42 8 87 19 100 24 43 17 47 10 5 -9z"/>
<path d="M429 1655 c-3 -2 -50 -9 -105 -16 -65 -7 -111 -18 -134 -32 -54 -32
-159 -126 -175 -158 -12 -23 -15 -85 -14 -346 l1 -318 23 50 c29 60 30 88 9
258 -31 252 -9 314 157 440 79 60 376 65 587 10 34 -9 65 -20 68 -25 3 -4 13
-8 23 -8 20 0 71 -22 71 -31 0 -4 -24 -7 -53 -8 -146 -1 -268 -94 -331 -251
-12 -28 -21 -82 -24 -141 -4 -83 -1 -108 22 -190 30 -101 79 -199 120 -238 42
-39 30 -46 -16 -10 -67 53 -165 158 -216 233 l-47 68 0 97 c0 53 6 141 14 195
l15 99 -28 23 c-48 42 -104 27 -170 -47 -94 -103 -113 -228 -55 -362 17 -39
52 -115 77 -167 36 -73 46 -105 45 -140 -1 -53 -25 -115 -56 -148 -26 -29
-109 -72 -136 -72 -11 0 -21 -4 -23 -10 -1 -5 -20 -11 -40 -12 -36 -3 -38 -5
-38 -35 0 -31 2 -33 33 -33 37 0 123 22 156 39 44 24 103 85 126 131 15 30 26
74 31 121 l6 74 -70 145 c-102 213 -111 269 -54 373 32 59 75 97 109 97 29 0
29 10 3 -184 -24 -177 24 -294 185 -452 136 -134 350 -243 380 -193 13 20 -5
59 -34 74 -47 24 -174 156 -208 215 -81 144 -99 306 -49 436 55 146 173 208
382 203 99 -3 113 3 114 42 0 20 -125 99 -210 132 -95 38 -230 65 -356 71 -61
3 -113 4 -115 1z m108 -41 c-3 -3 -12 -4 -19 -1 -8 3 -5 6 6 6 11 1 17 -2 13
-5z m-120 -10 c-3 -3 -12 -4 -19 -1 -8 3 -5 6 6 6 11 1 17 -2 13 -5z m230 0
c-3 -3 -12 -4 -19 -1 -8 3 -5 6 6 6 11 1 17 -2 13 -5z m443 -159 c0 -11 -10
-15 -32 -14 -31 2 -31 2 -5 6 15 2 27 9 27 14 0 5 2 9 5 9 3 0 5 -7 5 -15z
m-92 -2 c-10 -2 -28 -2 -40 0 -13 2 -5 4 17 4 22 1 32 -1 23 -4z m-111 -9 c-3
-3 -12 -4 -19 -1 -8 3 -5 6 6 6 11 1 17 -2 13 -5z m-117 -894 c13 -8 13 -10
-2 -10 -9 0 -20 5 -23 10 -8 13 5 13 25 0z m69 -36 c14 -12 -19 -1 -35 12 -18
14 -18 14 6 3 14 -6 27 -13 29 -15z"/>
<path d="M6555 1380 c-162 -25 -188 -32 -291 -81 -96 -46 -110 -59 -94 -88 9
-18 20 -21 88 -21 100 0 181 -21 246 -65 92 -61 121 -122 120 -255 -1 -70 -7
-99 -33 -167 -17 -44 -38 -87 -46 -93 -8 -7 -15 -17 -15 -23 0 -25 -114 -148
-172 -185 -104 -67 -108 -71 -108 -102 0 -34 13 -40 60 -27 19 5 44 9 55 10
11 0 22 4 25 7 3 4 37 24 75 43 84 44 115 65 192 137 169 158 213 256 213 471
0 56 4 101 10 104 19 12 75 -30 100 -76 23 -42 32 -123 19 -168 -2 -7 -48 -90
-101 -183 -86 -149 -98 -174 -98 -216 0 -144 85 -272 204 -312 78 -25 163 -37
251 -33 88 3 95 6 95 43 0 31 -11 36 -67 31 -13 -1 -23 4 -23 11 0 10 -2 10
-9 -1 -9 -13 -109 -11 -206 5 -54 9 -137 76 -165 134 -30 60 -38 151 -16 169
9 7 16 17 16 22 0 4 25 50 56 101 30 51 71 126 91 167 33 68 35 78 31 145 -6
82 -31 140 -80 181 -44 37 -72 49 -102 41 -48 -12 -56 -30 -56 -133 0 -243
-47 -331 -280 -517 -88 -70 -103 -78 -54 -25 203 217 255 526 118 695 -37 45
-158 114 -203 115 -67 1 -65 15 5 37 149 46 346 53 529 17 105 -21 172 -63
223 -140 55 -83 53 -161 -10 -388 -27 -99 -29 -112 -18 -160 31 -131 109 -217
196 -217 38 0 33 46 -8 68 -66 35 -123 98 -137 150 -11 45 -10 57 14 138 62
208 70 327 27 410 -23 45 -144 164 -167 164 -8 0 -15 3 -15 8 0 8 -77 25 -215
47 -96 16 -188 17 -270 5z m98 -37 c-7 -2 -19 -2 -25 0 -7 3 -2 5 12 5 14 0
19 -2 13 -5z m90 0 c-7 -2 -21 -2 -30 0 -10 3 -4 5 12 5 17 0 24 -2 18 -5z
m-176 -9 c-3 -3 -12 -4 -19 -1 -8 3 -5 6 6 6 11 1 17 -2 13 -5z m-237 -54 c-8
-5 -19 -10 -25 -10 -5 0 -3 5 5 10 8 5 20 10 25 10 6 0 3 -5 -5 -10z m0 -60
c23 -7 22 -8 -10 -9 -19 0 -42 4 -50 9 -12 8 -10 10 10 9 14 -1 36 -5 50 -9z
m-90 -4 c0 -2 -11 -6 -25 -8 -14 -3 -25 -1 -25 3 0 5 11 9 25 9 14 0 25 -2 25
-4z m157 -12 c-3 -3 -12 -4 -19 -1 -8 3 -5 6 6 6 11 1 17 -2 13 -5z m40 -10
c-3 -3 -12 -4 -19 -1 -8 3 -5 6 6 6 11 1 17 -2 13 -5z"/>
<path d="M1015 1316 c-167 -53 -264 -162 -282 -317 -6 -54 17 -159 50 -221 35
-66 129 -160 219 -219 46 -30 86 -58 90 -64 4 -5 8 -7 8 -3 0 4 26 -4 58 -18
185 -82 400 -139 627 -164 185 -21 508 -23 728 -6 203 17 209 17 260 -2 59
-22 185 -41 297 -45 75 -2 75 -2 78 25 4 31 -24 51 -73 54 -148 9 -221 17
-226 26 -4 6 -13 8 -21 6 -27 -11 -203 57 -228 87 -7 8 -16 15 -21 15 -8 0
-137 90 -165 115 -23 20 -52 38 -59 36 -4 -2 -11 1 -14 6 -7 11 -102 83 -179
136 -68 47 -142 104 -297 227 -294 233 -365 274 -561 324 -74 19 -232 20 -289
2z m104 -40 c-2 -2 -26 -6 -54 -9 -32 -4 -43 -3 -30 3 19 8 93 14 84 6z m84
-3 c-13 -2 -33 -2 -45 0 -13 2 -3 4 22 4 25 0 35 -2 23 -4z m114 -19 c-3 -3
-12 -4 -19 -1 -8 3 -5 6 6 6 11 1 17 -2 13 -5z m-17 -23 c103 -20 292 -118
390 -203 9 -8 37 -29 63 -47 26 -19 47 -38 47 -42 0 -4 19 -18 43 -32 23 -14
97 -67 163 -119 67 -51 161 -121 209 -156 48 -35 90 -72 92 -83 3 -12 9 -16
12 -11 3 6 35 -9 71 -34 36 -24 86 -58 113 -76 26 -17 45 -33 42 -36 -2 -3
-17 4 -32 14 -36 24 -100 53 -106 48 -6 -6 -457 225 -487 250 -8 7 -22 16 -30
20 -8 4 -40 22 -70 40 -80 49 -235 126 -289 142 -103 31 -230 7 -279 -52 -54
-65 -59 -122 -18 -216 17 -41 113 -126 164 -147 18 -8 31 -16 28 -18 -2 -3
-19 2 -38 10 -18 8 -71 27 -118 42 -102 33 -116 41 -245 127 -127 86 -123 82
-168 149 -67 98 -76 196 -26 289 41 77 116 129 224 154 34 8 176 0 245 -13z
m215 -406 c72 -19 192 -77 243 -117 20 -17 55 -39 77 -50 22 -12 59 -34 81
-49 23 -16 106 -62 185 -104 79 -41 140 -75 136 -75 -17 0 -312 102 -374 131
-97 44 -241 118 -268 139 -5 4 -31 19 -57 33 -47 26 -47 26 -71 6 -48 -37 -25
-59 188 -176 106 -59 240 -119 310 -140 28 -8 55 -20 60 -25 7 -8 4 -9 -10 -3
-40 15 -85 23 -125 21 -22 -1 -35 1 -29 5 11 6 -27 18 -76 24 -11 2 -45 10
-75 20 -115 34 -128 37 -139 31 -6 -4 -10 -2 -9 4 2 7 -26 25 -61 40 -75 32
-178 105 -186 131 -4 11 -10 19 -15 19 -17 0 -30 61 -18 83 34 64 115 82 233
52z m-134 -242 c13 -16 12 -17 -3 -4 -17 13 -22 21 -14 21 2 0 10 -8 17 -17z
m329 -133 c0 -5 -7 -7 -15 -4 -8 4 -15 8 -15 10 0 2 7 4 15 4 8 0 15 -4 15
-10z m320 -20 c0 -5 -7 -7 -15 -4 -8 4 -15 8 -15 10 0 2 7 4 15 4 8 0 15 -4
15 -10z m-223 -6 c-3 -3 -12 -4 -19 -1 -8 3 -5 6 6 6 11 1 17 -2 13 -5z m850
-80 c-3 -3 -12 -4 -19 -1 -8 3 -5 6 6 6 11 1 17 -2 13 -5z m60 0 c-3 -3 -12
-4 -19 -1 -8 3 -5 6 6 6 11 1 17 -2 13 -5z m-484 -21 c-7 -2 -19 -2 -25 0 -7
3 -2 5 12 5 14 0 19 -2 13 -5z"/>
<path d="M1225 1095 c-130 -24 -182 -84 -192 -219 -7 -96 18 -186 51 -186 41
0 51 23 32 79 -19 59 -21 139 -4 176 16 36 76 64 150 71 100 9 108 11 108 39
0 42 -55 57 -145 40z"/>
<path d="M1705 940 c-3 -5 -1 -10 4 -10 6 0 11 5 11 10 0 6 -2 10 -4 10 -3 0
-8 -4 -11 -10z"/>
<path d="M257 1210 c-3 -11 -1 -20 4 -20 5 0 9 9 9 20 0 11 -2 20 -4 20 -2 0
-6 -9 -9 -20z"/>
<path d="M5906 1109 c-49 -10 -103 -24 -120 -30 -75 -31 -175 -80 -216 -108
-25 -17 -48 -31 -52 -31 -9 0 -88 -51 -343 -218 -104 -69 -208 -136 -230 -150
-22 -14 -51 -33 -65 -42 -73 -49 -241 -146 -299 -172 -132 -60 -224 -79 -396
-79 -66 0 -126 -3 -133 -8 -8 -5 -12 -22 -10 -42 l3 -34 135 1 c90 0 160 6
212 18 72 17 84 17 190 2 62 -9 147 -20 188 -26 88 -12 454 -30 490 -24 14 2
70 5 125 8 116 4 306 30 385 52 381 106 566 218 658 399 30 59 36 83 40 151 5
96 -7 141 -55 205 -91 120 -291 171 -507 128z m304 -86 c80 -26 151 -79 180
-133 15 -29 15 -117 0 -177 -16 -63 -72 -135 -150 -193 -105 -79 -234 -133
-461 -194 -13 -4 -6 3 16 15 22 12 49 29 60 39 11 10 27 20 35 22 8 2 30 28
49 57 70 109 48 218 -54 270 -40 21 -64 26 -125 26 -114 0 -198 -31 -420 -154
-104 -58 -292 -151 -305 -151 -7 0 -15 3 -18 8 -2 4 -3 2 -1 -4 3 -16 -42 -35
-63 -27 -10 4 -14 2 -10 -4 4 -7 -29 -24 -86 -46 -195 -74 -210 -74 -88 -2 51
30 96 55 99 55 3 0 20 11 38 25 18 14 35 25 37 25 6 0 231 147 399 261 65 43
120 79 123 79 2 0 37 21 77 47 164 105 306 159 452 172 102 9 150 5 216 -16z
m-377 -361 c58 -20 83 -55 73 -98 -11 -42 -93 -116 -167 -151 -81 -38 -293
-97 -426 -118 -99 -16 -166 -16 -93 0 82 17 458 186 507 227 17 14 16 39 -2
66 l-16 21 -127 -65 c-179 -94 -413 -182 -552 -209 -19 -3 -44 -9 -55 -11 -34
-8 24 23 75 41 25 8 92 40 150 70 58 30 121 63 140 72 19 10 46 25 60 34 59
39 198 103 259 120 84 22 114 22 174 1z m-396 -368 c-3 -3 -12 -4 -19 -1 -8 3
-5 6 6 6 11 1 17 -2 13 -5z"/>
<path d="M5871 901 c-37 -37 -11 -61 76 -66 94 -6 152 -51 153 -119 0 -22 -10
-71 -22 -108 -23 -72 -19 -99 15 -106 24 -5 44 34 61 120 19 91 20 126 5 165
-13 36 -78 103 -99 103 -9 0 -21 5 -27 11 -6 6 -40 13 -76 16 -56 5 -67 3 -86
-16z"/>
<path d="M421 631 c-9 -6 -14 -31 -15 -74 -1 -70 -15 -96 -68 -123 -33 -17
-64 -72 -50 -86 15 -15 920 -17 933 -2 13 16 -25 61 -66 78 -43 18 -111 26
-255 30 -96 3 -125 7 -175 28 -100 42 -119 51 -151 75 -19 14 -38 21 -48 17
-11 -4 -15 -2 -12 7 3 8 -10 24 -30 37 -39 25 -43 25 -63 13z m182 -258 c-7
-2 -19 -2 -25 0 -7 3 -2 5 12 5 14 0 19 -2 13 -5z"/>
<path d="M6655 378 c-63 -40 -180 -98 -197 -98 -7 0 -24 -6 -38 -13 -33 -17
-232 -15 -282 2 -34 11 -45 10 -109 -13 -68 -24 -98 -47 -99 -72 0 -15 31 -24
110 -30 36 -2 88 -6 115 -9 44 -4 223 -17 430 -29 39 -3 112 -8 163 -12 l92
-7 0 27 c0 18 -15 43 -44 74 -61 66 -69 86 -62 145 5 36 4 52 -6 58 -18 12
-17 12 -73 -23z"/>
<path d="M205 360 c-3 -5 -2 -10 4 -10 5 0 13 5 16 10 3 6 2 10 -4 10 -5 0
-13 -4 -16 -10z"/>
</g>
</svg>
